HIERARCHY
ROOT Hips
{
 OFFSET 0.000000 0.000000 0.000000
 CHANNELS 6 Xposition Yposition Zposition Yrotation Xrotation Zrotation
 JOINT Chest
 {
  OFFSET 0.000000 9.585900 0.002600
  CHANNELS 3 Yrotation Xrotation Zrotation
  JOINT Chest2
  {
   OFFSET 0.000000 9.601200 -0.005300
   CHANNELS 3 Yrotation Xrotation Zrotation
   JOINT Chest3
   {
    OFFSET 0.000000 9.561800 0.000000
    CHANNELS 3 Yrotation Xrotation Zrotation
    JOINT Chest4
    {
     OFFSET 0.000000 9.552100 0.000000
     CHANNELS 3 Yrotation Xrotation Zrotation
     JOINT Neck
     {
      OFFSET 0.000000 14.453000 0.000000
      CHANNELS 3 Yrotation Xrotation Zrotation
      JOINT Head
      {
       OFFSET 0.000000 8.936500 -0.011300
       CHANNELS 3 Yrotation Xrotation Zrotation
       End Site
       {
        OFFSET 0.000000 17.073600 -0.006000
       }
      }
     }
     JOINT RightCollar
     {
      OFFSET -2.921100 9.558500 0.000000
      CHANNELS 3 Yrotation Xrotation Zrotation
      JOINT RightShoulder
      {
       OFFSET -13.519700 0.000000 0.000000
       CHANNELS 3 Yrotation Xrotation Zrotation
       JOINT RightElbow
       {
        OFFSET 0.000000 -29.696600 0.000000
        CHANNELS 3 Yrotation Xrotation Zrotation
        JOINT RightWrist
        {
         OFFSET 0.000000 -24.004700 0.000000
         CHANNELS 3 Yrotation Xrotation Zrotation
         End Site
         {
          OFFSET 0.000000 -17.728500 0.000000
         }
        }
       }
      }
     }
     JOINT LeftCollar
     {
      OFFSET 2.921100 9.558500 0.000000
      CHANNELS 3 Yrotation Xrotation Zrotation
      JOINT LeftShoulder
      {
       OFFSET 13.519700 0.000000 0.000000
       CHANNELS 3 Yrotation Xrotation Zrotation
       JOINT LeftElbow
       {
        OFFSET 0.000000 -29.696600 0.000000
        CHANNELS 3 Yrotation Xrotation Zrotation
        JOINT LeftWrist
        {
         OFFSET 0.000000 -24.004700 0.000000
         CHANNELS 3 Yrotation Xrotation Zrotation
         End Site
         {
          OFFSET 0.000000 -17.728500 0.000000
         }
        }
       }
      }
     }
    }
   }
  }
 }
 JOINT RightHip
 {
  OFFSET -7.771700 -0.012900 -0.001300
  CHANNELS 3 Yrotation Xrotation Zrotation
  JOINT RightKnee
  {
   OFFSET 0.000000 -40.869800 0.001200
   CHANNELS 3 Yrotation Xrotation Zrotation
   JOINT RightAnkle
   {
    OFFSET 0.000000 -39.717900 0.002100
    CHANNELS 3 Yrotation Xrotation Zrotation
    JOINT RightToe
    {
     OFFSET 0.000000 -4.965400 11.033500
     CHANNELS 3 Yrotation Xrotation Zrotation
     End Site
     {
      OFFSET 0.000000 -1.423100 5.872300
     }
    }
   }
  }
 }
 JOINT LeftHip
 {
  OFFSET 7.771700 -0.012900 -0.001300
  CHANNELS 3 Yrotation Xrotation Zrotation
  JOINT LeftKnee
  {
   OFFSET 0.000000 -40.869800 0.001200
   CHANNELS 3 Yrotation Xrotation Zrotation
   JOINT LeftAnkle
   {
    OFFSET 0.000000 -39.717900 0.002100
    CHANNELS 3 Yrotation Xrotation Zrotation
    JOINT LeftToe
    {
     OFFSET 0.000000 -4.965400 11.033500
     CHANNELS 3 Yrotation Xrotation Zrotation
     End Site
     {
      OFFSET 0.000000 -1.423100 5.872300
     }
    }
   }
  }
 }
}
MOTION
Frames: 5
Frame Time: 0.008333
0.000000 85.388000 0.000000 0.000000 -5.767877 0.000000 0.000000 11.653817 0.000000 0.000000 -5.885947 0.000000 0.000000 -0.000000 0.000000 0.000000 -0.000000 0.000000 0.000000 12.528835 0.000000 0.000000 0.711642 0.000000 0.000000 -0.000000 0.000000 0.000000 0.000000 -90.000000 0.000000 -2.309062 0.000000 0.000000 2.309062 0.000000 0.000000 -0.000000 0.000000 0.000000 -0.000000 90.000000 0.000000 -2.309062 0.000000 0.000000 2.309062 0.000000 0.000000 8.520406 0.000000 0.000000 1.905762 0.000000 -0.000000 -4.658285 0.000000 0.000000 -0.000000 0.000000 0.000000 8.520406 0.000000 0.000000 1.905762 0.000000 -0.000000 -4.658285 0.000000 0.000000 -0.000000 0.000000
-273.756085 60.819189 -81.466416 160.196238 -39.339221 0.119628 4.962202 19.266410 2.478382 0.542358 2.336352 0.201882 0.913409 3.887935 0.345642 4.162725 16.558358 1.959421 5.067717 16.140679 -4.562395 6.568347 -8.500259 -6.136884 -0.314572 -7.197127 -10.598683 -19.458031 -30.766797 -41.896443 -48.844195 -58.308406 22.741998 -7.472868 -6.032395 -33.070349 -4.083356 -13.443313 4.968221 16.106651 -35.491922 41.371344 60.722724 -35.316751 -50.009754 5.765091 -11.739192 6.363169 0.063819 -29.081438 3.205895 -20.641463 64.662397 -14.958154 -0.630612 -0.282321 -2.945301 0.101638 0.153856 0.107387 8.150395 -29.895709 3.741962 24.270055 56.994802 24.252731 -15.197138 -8.953508 1.459951 -0.275189 -0.162970 -0.013425
-273.762003 60.813936 -81.474876 160.117221 -39.403376 0.121852 4.976295 19.167635 2.505593 0.550763 2.348114 0.205075 0.910510 3.858937 0.349446 4.167600 16.500720 1.981295 4.929969 16.254056 -4.456358 6.384647 -8.389964 -5.980845 -0.327953 -6.888619 -10.163112 -19.655806 -30.400722 -41.191340 -47.610793 -58.995938 22.291416 -7.399440 -5.982625 -33.010197 -4.054032 -13.038164 4.565042 16.614820 -34.958336 40.451413 60.287132 -36.835265 -50.033382 5.607897 -11.649039 6.120717 0.112132 -29.017060 3.288933 -20.638014 64.640479 -14.999089 -0.672972 -0.290092 -2.910597 0.118052 0.169226 0.101945 8.301706 -29.896610 3.814370 24.256676 57.117037 24.217975 -15.210188 -8.929761 1.578405 -0.347198 -0.214041 -0.068475
-273.769206 60.807659 -81.484928 160.043148 -39.481093 0.109158 4.999020 19.104574 2.545783 0.548189 2.330420 0.207081 0.906628 3.831205 0.352667 4.167530 16.445999 2.000115 4.800430 16.370028 -4.351277 6.211080 -8.276138 -5.828762 -0.299752 -6.629054 -9.681963 -19.850981 -29.975330 -40.547754 -46.404519 -59.547004 21.905662 -7.353647 -5.941658 -32.964452 -4.041454 -12.640889 4.101984 17.153328 -34.408215 39.568564 59.804359 -38.337073 -50.011149 5.444781 -11.554477 5.856009 0.195529 -28.941924 3.406863 -20.646236 64.611229 -15.064594 -0.770976 -0.281176 -2.851165 0.150086 0.165942 0.097749 8.415638 -29.876448 3.904359 24.286276 57.226729 24.196952 -15.186036 -8.934224 1.682560 -0.407112 -0.233951 -0.102071
-273.779182 60.800056 -81.496019 159.987788 -39.565961 0.080924 5.004616 19.044210 2.583458 0.545040 2.313784 0.208717 0.901841 3.805158 0.355263 4.162479 16.395130 2.015606 4.682492 16.488338 -4.247339 6.051453 -8.158934 -5.681555 -0.212439 -6.420825 -9.168801 -20.077282 -29.492878 -39.950360 -45.232239 -59.937407 21.596043 -7.333035 -5.906154 -32.914076 -4.070206 -12.264842 3.570834 17.739527 -33.842408 38.767216 59.270303 -39.762210 -49.948429 5.276839 -11.462547 5.568602 0.280462 -28.864480 3.503076 -20.762421 64.590609 -15.173212 -0.853295 -0.283438 -2.840873 0.206133 0.170094 0.121922 8.508572 -29.848075 4.000766 24.288041 57.323032 24.166007 -15.185708 -8.919281 1.701445 -0.484341 -0.263568 -0.069081
